<?xml version="1.0" encoding="UTF-8"?>
<!DOCTYPE svg PUBLIC "-//W3C//DTD SVG 1.1//EN" "http://www.w3.org/Graphics/SVG/1.1/DTD/svg11.dtd">
<svg xmlns="http://www.w3.org/2000/svg" version="1.1" width="2800px" height="2908px" style="shape-rendering:geometricPrecision; text-rendering:geometricPrecision; image-rendering:optimizeQuality; fill-rule:evenodd; clip-rule:evenodd" xmlns:xlink="http://www.w3.org/1999/xlink">
<g><path style="opacity:0.736" fill="#070707" d="M 2514.5,1504.5 C 2515.17,1504.5 2515.83,1504.5 2516.5,1504.5C 2577.38,1634.59 2638.55,1764.59 2700,1894.5C 2707.66,1905.42 2718.16,1910.58 2731.5,1910C 2744.1,1906.48 2750.43,1898.15 2750.5,1885C 2750.17,1876.36 2748.01,1868.19 2744,1860.5C 2634.33,1629.17 2524.67,1397.83 2415,1166.5C 2246.11,802.493 2076.44,438.826 1906,75.5C 1902.59,68.3423 1898.92,61.3423 1895,54.5C 1884.52,40.6756 1871.68,37.8423 1856.5,46C 1851.59,50.2436 1847.42,55.0769 1844,60.5C 1701.47,365.082 1559.14,669.748 1417,974.5C 1414.29,978.753 1411.46,982.92 1408.5,987C 1402.54,988.005 1396.87,987.172 1391.5,984.5C 1391.5,983.833 1391.83,983.5 1392.5,983.5C 1397.23,983.524 1401.89,983.69 1406.5,984C 1416.21,966.422 1424.71,948.255 1432,929.5C 1444.37,905.76 1455.37,881.427 1465,856.5C 1481.09,822.649 1497.43,788.982 1514,755.5C 1517,747.833 1520,740.167 1523,732.5C 1527.74,724.752 1532.07,716.752 1536,708.5C 1550.31,675.188 1565.98,642.521 1583,610.5C 1583.5,607.978 1583.33,605.478 1582.5,603C 1582.8,601.112 1583.3,599.278 1584,597.5C 1588.33,591.167 1592.67,584.833 1597,578.5C 1598.51,573.607 1599.51,568.607 1600,563.5C 1605.03,559.778 1607.69,554.778 1608,548.5C 1610,545.833 1612,543.167 1614,540.5C 1615.54,527.858 1620.54,516.858 1629,507.5C 1629.47,499.075 1632.47,491.742 1638,485.5C 1638.5,480.156 1640.84,475.823 1645,472.5C 1645.92,467.476 1646.92,462.476 1648,457.5C 1652.73,454.05 1655.39,449.384 1656,443.5C 1661.47,439.209 1664.14,433.543 1664,426.5C 1668.41,418.005 1673.08,409.672 1678,401.5C 1678.91,397.205 1679.58,392.872 1680,388.5C 1688.19,380.465 1693.52,370.798 1696,359.5C 1704.42,348.933 1709.75,336.933 1712,323.5C 1717.32,319.52 1719.99,314.186 1720,307.5C 1721.33,306.167 1722.67,304.833 1724,303.5C 1731.47,288.221 1738.14,272.554 1744,256.5C 1745.75,253.328 1747.75,250.328 1750,247.5C 1751.56,244.538 1751.73,241.538 1750.5,238.5C 1752.82,235.683 1755.32,233.016 1758,230.5C 1759.2,227.274 1759.7,223.941 1759.5,220.5C 1765.25,220.44 1767.58,217.773 1766.5,212.5C 1766.7,207.442 1768.53,203.109 1772,199.5C 1772.68,191.417 1776.02,184.75 1782,179.5C 1785.32,167.183 1790.99,156.183 1799,146.5C 1799.33,142.167 1799.67,137.833 1800,133.5C 1803.3,128.615 1805.63,123.282 1807,117.5C 1814.46,114.145 1817.12,108.478 1815,100.5C 1818.97,96.2204 1821.64,91.2204 1823,85.5C 1824.71,83.4565 1826.71,81.7899 1829,80.5C 1829.01,71.7643 1831.34,63.7643 1836,56.5C 1862.22,27.5203 1886.89,28.8536 1910,60.5C 1932.51,111.858 1955.85,162.858 1980,213.5C 1981.33,214.833 1982.67,216.167 1984,217.5C 1998.63,252.435 2014.63,286.768 2032,320.5C 2039.11,340.378 2048.11,359.378 2059,377.5C 2062.61,385.721 2065.94,394.054 2069,402.5C 2074.59,412.006 2079.92,421.673 2085,431.5C 2086.13,438.764 2089.13,445.097 2094,450.5C 2096.85,463.387 2101.85,475.387 2109,486.5C 2116.67,504.5 2124.33,522.5 2132,540.5C 2139.3,552.427 2144.96,565.094 2149,578.5C 2180.47,643.107 2211.14,708.107 2241,773.5C 2241.37,776.877 2241.37,780.21 2241,783.5C 2247.14,789.117 2251.81,795.784 2255,803.5C 2270.56,840.28 2286.89,876.614 2304,912.5C 2304.33,914.5 2304.67,916.5 2305,918.5C 2310.49,929.49 2316.49,940.157 2323,950.5C 2333.61,973.672 2344.61,996.672 2356,1019.5C 2359.8,1029.91 2363.8,1040.25 2368,1050.5C 2382.67,1080.5 2397.33,1110.5 2412,1140.5C 2413.04,1143.75 2413.7,1147.09 2414,1150.5C 2416.81,1152.39 2419.14,1154.73 2421,1157.5C 2424.19,1164.21 2426.52,1171.21 2428,1178.5C 2435.48,1187.93 2440.48,1198.6 2443,1210.5C 2444.63,1213.13 2446.63,1215.46 2449,1217.5C 2450.13,1220.38 2450.79,1223.38 2451,1226.5C 2454.69,1229.22 2456.69,1232.88 2457,1237.5C 2460.08,1243.33 2463.41,1249 2467,1254.5C 2480.45,1284.74 2494.45,1314.74 2509,1344.5C 2512.93,1353.28 2516.26,1362.28 2519,1371.5C 2520.84,1375.18 2523.17,1378.52 2526,1381.5C 2545.95,1424.06 2566.95,1466.06 2589,1507.5C 2596.94,1525.72 2604.61,1544.05 2612,1562.5C 2614.17,1566.84 2616.84,1570.84 2620,1574.5C 2629.71,1599.25 2641.04,1623.25 2654,1646.5C 2655.79,1651.37 2657.13,1656.37 2658,1661.5C 2666.19,1673.55 2672.52,1686.55 2677,1700.5C 2682.5,1706.49 2686.16,1713.49 2688,1721.5C 2710.61,1769.05 2732.94,1816.71 2755,1864.5C 2760.92,1877.91 2759.92,1890.91 2752,1903.5C 2741.1,1914.71 2728.26,1917.54 2713.5,1912C 2701.61,1905.78 2692.78,1896.61 2687,1884.5C 2681.27,1870.72 2675.27,1857.05 2669,1843.5C 2649.85,1803.71 2630.52,1764.05 2611,1724.5C 2598.56,1697.62 2587.23,1670.29 2577,1642.5C 2562.67,1615.17 2548.33,1587.83 2534,1560.5C 2528.39,1541.5 2521.89,1522.83 2514.5,1504.5 Z"/></g>
<g><path style="opacity:1" fill="#fdfbf9" d="M 2516.5,1504.5 C 2509.17,1489.17 2501.83,1473.83 2494.5,1458.5C 2492.66,1454.14 2490.32,1450.14 2487.5,1446.5C 2486.72,1442.95 2485.39,1439.61 2483.5,1436.5C 2483.01,1434.18 2482.01,1432.18 2480.5,1430.5C 2476.77,1421.38 2472.77,1412.38 2468.5,1403.5C 2464.41,1393.65 2460.07,1383.98 2455.5,1374.5C 2451.1,1364.71 2446.44,1355.04 2441.5,1345.5C 2438.07,1338.31 2434.41,1331.31 2430.5,1324.5C 2430.25,1322.33 2429.25,1320.66 2427.5,1319.5C 2425.91,1312.99 2423.24,1306.99 2419.5,1301.5C 2412.38,1284.59 2404.71,1267.92 2396.5,1251.5C 2362.11,1173.38 2326.11,1096.05 2288.5,1019.5C 2285.9,1014.62 2283.56,1009.62 2281.5,1004.5C 2247.41,931.98 2213.57,859.313 2180,786.5C 2179.31,784.65 2178.14,783.316 2176.5,782.5C 2170.83,770.5 2165.17,758.5 2159.5,746.5C 2153.34,732.188 2146.68,718.188 2139.5,704.5C 2134.95,693.064 2129.61,682.064 2123.5,671.5C 2113.22,645.498 2102.05,619.831 2090,594.5C 2017.45,442.075 1945.45,289.408 1874,136.5C 1872.41,135.273 1871.08,135.606 1870,137.5C 1864.16,147.183 1858.82,157.183 1854,167.5C 1617.69,675.43 1380.02,1182.76 1141,1689.5C 1140.51,1690.79 1140.34,1692.13 1140.5,1693.5C 1137.52,1697.44 1135.02,1701.78 1133,1706.5C 1102.94,1770.95 1072.61,1835.29 1042,1899.5C 1038.32,1906.76 1032.48,1911.26 1024.5,1913C 1013.88,1914.18 1003.21,1914.84 992.5,1915C 975.333,1915.17 958.167,1915.33 941,1915.5C 661.835,1914.95 382.668,1914.95 103.5,1915.5C 109.226,2097.86 163.559,2263.86 266.5,2413.5C 435.837,2653.91 668.17,2786.41 963.5,2811C 995.5,2811.67 1027.5,2811.67 1059.5,2811C 1089.19,2808.55 1118.86,2805.89 1148.5,2803C 1194.04,2797.03 1238.38,2786.53 1281.5,2771.5C 1481.11,2707.99 1641.28,2590.99 1762,2420.5C 1769.18,2409.47 1776.34,2398.47 1783.5,2387.5C 1784.5,2386.17 1785.5,2384.83 1786.5,2383.5C 1810.26,2346.65 1830.93,2307.98 1848.5,2267.5C 1887.66,2181.5 1913.16,2091.5 1925,1997.5C 1954.44,1731.54 1884.77,1495.54 1716,1289.5C 1702.37,1273.54 1688.37,1257.87 1674,1242.5C 1662.37,1224.06 1666.2,1209.9 1685.5,1200C 1695.17,1197.97 1703.83,1199.97 1711.5,1206C 1840.05,1340.9 1924.22,1500.07 1964,1683.5C 1965.4,1685.07 1966.9,1686.4 1968.5,1687.5C 1969.3,1690.43 1969.63,1693.43 1969.5,1696.5C 1969.19,1699.71 1969.52,1702.71 1970.5,1705.5C 1972.43,1739.95 1975.6,1774.28 1980,1808.5C 1993.84,1979.97 1965.17,2143.97 1894,2300.5C 1808.02,2481.15 1679.86,2623.98 1509.5,2729C 1396.41,2797.59 1274.08,2839.92 1142.5,2856C 1125.85,2857.2 1109.18,2858.03 1092.5,2858.5C 1069.83,2858.5 1047.17,2858.5 1024.5,2858.5C 979.827,2857.54 935.16,2856.38 890.5,2855C 853.982,2851.73 817.982,2845.56 782.5,2836.5C 780.698,2835.54 778.698,2834.88 776.5,2834.5C 727.668,2822.28 680.334,2805.78 634.5,2785C 632.26,2784.02 629.927,2783.52 627.5,2783.5C 626.209,2783.74 625.209,2783.4 624.5,2782.5C 625.738,2782.19 625.738,2781.69 624.5,2781C 596.908,2767.03 569.575,2753.53 542.5,2740.5C 541.391,2740.44 540.391,2740.11 539.5,2739.5C 536.406,2735.11 532.073,2732.44 526.5,2731.5C 525.089,2729.46 523.089,2728.46 520.5,2728.5C 521.598,2727.6 521.598,2726.77 520.5,2726C 369.645,2634.81 251.812,2511.98 167,2357.5C 85.5737,2207.13 46.5737,2046.46 50,1875.5C 54.0048,1866.07 61.1715,1860.9 71.5,1860C 347.169,1859.32 622.835,1859.82 898.5,1861.5C 930.536,1861.83 962.536,1861 994.5,1859C 1000.36,1857.49 1004.53,1853.99 1007,1848.5C 1132.33,1581.83 1257.67,1315.17 1383,1048.5C 1384.44,1043.79 1383.28,1039.95 1379.5,1037C 1375.59,1035.21 1371.59,1033.71 1367.5,1032.5C 1344.79,1023.6 1321.79,1015.26 1298.5,1007.5C 1298.5,1006.83 1298.17,1006.5 1297.5,1006.5C 1285.72,1003.57 1274.06,1000.24 1262.5,996.5C 1244.17,992.08 1226.17,987.747 1208.5,983.5C 1208.94,983.565 1209.27,983.399 1209.5,983C 1039.08,946.626 871.742,957.626 707.5,1016C 601.784,1054.82 506.451,1110.49 421.5,1183C 404.022,1199.23 386.356,1215.23 368.5,1231C 360.217,1237.43 350.884,1240.43 340.5,1240C 327.465,1233.1 321.965,1222.26 324,1207.5C 328.541,1197.28 335.041,1188.45 343.5,1181C 521.049,1011.77 733.049,920.274 979.5,906.5C 994.833,906.5 1010.17,906.5 1025.5,906.5C 1148.21,909.708 1266.54,934.041 1380.5,979.5C 1383.98,981.406 1387.65,983.072 1391.5,984.5C 1396.87,987.172 1402.54,988.005 1408.5,987C 1411.46,982.92 1414.29,978.753 1417,974.5C 1559.14,669.748 1701.47,365.082 1844,60.5C 1847.42,55.0769 1851.59,50.2436 1856.5,46C 1871.68,37.8423 1884.52,40.6756 1895,54.5C 1898.92,61.3423 1902.59,68.3423 1906,75.5C 2076.44,438.826 2246.11,802.493 2415,1166.5C 2524.67,1397.83 2634.33,1629.17 2744,1860.5C 2748.01,1868.19 2750.17,1876.36 2750.5,1885C 2750.43,1898.15 2744.1,1906.48 2731.5,1910C 2718.16,1910.58 2707.66,1905.42 2700,1894.5C 2638.55,1764.59 2577.38,1634.59 2516.5,1504.5 Z"/></g>
<g><path style="opacity:0.811" fill="#0b0b0b" d="M 2123.5,671.5 C 2123.17,671.5 2122.83,671.5 2122.5,671.5C 2098.74,622.314 2075.24,572.981 2052,523.5C 2032.59,484.345 2012.92,445.345 1993,406.5C 1982.26,376.863 1969.76,348.03 1955.5,320C 1952.21,317.522 1948.54,315.856 1944.5,315C 1937.41,297.413 1930.91,279.58 1925,261.5C 1910.82,225.147 1894.49,189.813 1876,155.5C 1873.67,152.833 1871.33,152.833 1869,155.5C 1863.08,165.673 1857.41,176.006 1852,186.5C 1849.06,195.323 1845.73,203.99 1842,212.5C 1835.21,221.296 1829.21,230.63 1824,240.5C 1598.49,723.862 1372.15,1206.86 1145,1689.5C 1143.69,1691.19 1142.19,1692.53 1140.5,1693.5C 1140.34,1692.13 1140.51,1690.79 1141,1689.5C 1380.02,1182.76 1617.69,675.43 1854,167.5C 1858.82,157.183 1864.16,147.183 1870,137.5C 1871.08,135.606 1872.41,135.273 1874,136.5C 1945.45,289.408 2017.45,442.075 2090,594.5C 2102.05,619.831 2113.22,645.498 2123.5,671.5 Z"/></g>
<g><path style="opacity:0.533" fill="#797978" d="M 2122.5,671.5 C 2122.83,671.5 2123.17,671.5 2123.5,671.5C 2129.61,682.064 2134.95,693.064 2139.5,704.5C 2139.5,705.167 2139.5,705.833 2139.5,706.5C 2133.56,694.963 2127.9,683.297 2122.5,671.5 Z"/></g>
<g><path style="opacity:0.82" fill="#353535" d="M 2139.5,704.5 C 2146.68,718.188 2153.34,732.188 2159.5,746.5C 2158.83,746.5 2158.17,746.5 2157.5,746.5C 2151.5,733.171 2145.5,719.838 2139.5,706.5C 2139.5,705.833 2139.5,705.167 2139.5,704.5 Z"/></g>
<g><path style="opacity:0.656" fill="#151515" d="M 2157.5,746.5 C 2158.17,746.5 2158.83,746.5 2159.5,746.5C 2165.17,758.5 2170.83,770.5 2176.5,782.5C 2175.6,783.209 2175.26,784.209 2175.5,785.5C 2169.28,772.725 2163.28,759.725 2157.5,746.5 Z"/></g>
<g><path style="opacity:0.866" fill="#73726d" d="M 2176.5,782.5 C 2178.14,783.316 2179.31,784.65 2180,786.5C 2213.57,859.313 2247.41,931.98 2281.5,1004.5C 2280.17,1004.5 2278.83,1004.5 2277.5,1004.5C 2243.77,931.38 2209.77,858.38 2175.5,785.5C 2175.26,784.209 2175.6,783.209 2176.5,782.5 Z"/></g>
<g><path style="opacity:0.819" fill="#131313" d="M 1025.5,906.5 C 1136.21,905.233 1243.54,924.399 1347.5,964C 1358.64,968.76 1369.64,973.593 1380.5,978.5C 1380.5,978.833 1380.5,979.167 1380.5,979.5C 1266.54,934.041 1148.21,909.708 1025.5,906.5 Z"/></g>
<g><path style="opacity:0.863" fill="#0a0a09" d="M 979.5,906.5 C 733.049,920.274 521.049,1011.77 343.5,1181C 335.041,1188.45 328.541,1197.28 324,1207.5C 321.965,1222.26 327.465,1233.1 340.5,1240C 350.884,1240.43 360.217,1237.43 368.5,1231C 386.356,1215.23 404.022,1199.23 421.5,1183C 506.451,1110.49 601.784,1054.82 707.5,1016C 871.742,957.626 1039.08,946.626 1209.5,983C 1209.27,983.399 1208.94,983.565 1208.5,983.5C 1161.38,976.356 1114.04,970.856 1066.5,967C 823.365,959.149 609.032,1032.82 423.5,1188C 408.44,1203.73 392.773,1218.73 376.5,1233C 356.225,1248.02 337.059,1246.85 319,1229.5C 312.257,1220.38 311.924,1211.05 318,1201.5C 336.867,1179.63 357.367,1159.47 379.5,1141C 435.497,1094.16 495.163,1052.49 558.5,1016C 656.741,963.253 761.074,928.92 871.5,913C 907.534,908.277 943.534,906.11 979.5,906.5 Z"/></g>
<g><path style="opacity:0.579" fill="#807e7d" d="M 1380.5,978.5 C 1384.8,979.655 1388.8,981.321 1392.5,983.5C 1391.83,983.5 1391.5,983.833 1391.5,984.5C 1387.65,983.072 1383.98,981.406 1380.5,979.5C 1380.5,979.167 1380.5,978.833 1380.5,978.5 Z"/></g>
<g><path style="opacity:0.502" fill="#838382" d="M 1262.5,996.5 C 1274.06,1000.24 1285.72,1003.57 1297.5,1006.5C 1297.22,1007.29 1296.72,1007.96 1296,1008.5C 1285.26,1004.81 1274.42,1001.31 1263.5,998C 1262.94,997.617 1262.61,997.117 1262.5,996.5 Z"/></g>
<g><path style="opacity:0.781" fill="#141413" d="M 2277.5,1004.5 C 2278.83,1004.5 2280.17,1004.5 2281.5,1004.5C 2283.56,1009.62 2285.9,1014.62 2288.5,1019.5C 2288.37,1021.22 2288.04,1022.88 2287.5,1024.5C 2284.22,1017.94 2280.89,1011.28 2277.5,1004.5 Z"/></g>
<g><path style="opacity:0.726" fill="#000000" d="M 1966.5,1011.5 C 1969.71,1011.77 1971.71,1013.43 1972.5,1016.5C 1970.51,1022.48 1967.51,1027.81 1963.5,1032.5C 1963.06,1025.35 1964.06,1018.35 1966.5,1011.5 Z"/></g>
<g><path style="opacity:0.682" fill="#393938" d="M 1298.5,1007.5 C 1321.79,1015.26 1344.79,1023.6 1367.5,1032.5C 1366.83,1032.5 1366.5,1032.83 1366.5,1033.5C 1344.98,1025.38 1323.32,1017.55 1301.5,1010C 1300.06,1009.62 1299.06,1008.79 1298.5,1007.5 Z"/></g>
<g><path style="opacity:0.855" fill="#0a0a0a" d="M 1367.5,1032.5 C 1371.59,1033.71 1375.59,1035.21 1379.5,1037C 1383.28,1039.95 1384.44,1043.79 1383,1048.5C 1257.67,1315.17 1132.33,1581.83 1007,1848.5C 1004.53,1853.99 1000.36,1857.49 994.5,1859C 962.536,1861 930.536,1861.83 898.5,1861.5C 622.835,1859.82 347.169,1859.32 71.5,1860C 61.1715,1860.9 54.0048,1866.07 50,1875.5C 46.5737,2046.46 85.5737,2207.13 167,2357.5C 251.812,2511.98 369.645,2634.81 520.5,2726C 521.598,2726.77 521.598,2727.6 520.5,2728.5C 517.206,2728.74 514.206,2727.91 511.5,2726C 379.807,2645.31 272.973,2539.47 191,2408.5C 168.326,2372.1 147.659,2334.43 129,2295.5C 127.197,2289.76 125.197,2284.09 123,2278.5C 115.14,2261.92 107.473,2245.25 100,2228.5C 81.4548,2165.53 65.7881,2101.87 53,2037.5C 50.7721,2024.57 49.1054,2011.57 48,1998.5C 46.5233,1969.28 44.3566,1940.11 41.5,1911C 41.7076,1897.67 43.2076,1884.5 46,1871.5C 52.0494,1861.05 61.2161,1855.55 73.5,1855C 348.334,1854.64 623.168,1855.14 898,1856.5C 927.833,1856.33 957.667,1856.17 987.5,1856C 993.896,1854.38 999.062,1850.88 1003,1845.5C 1023.49,1804.01 1042.83,1762.01 1061,1719.5C 1064.08,1716.34 1066.42,1712.67 1068,1708.5C 1088.51,1661.62 1110.18,1615.29 1133,1569.5C 1167.64,1495.21 1202.64,1420.88 1238,1346.5C 1240.89,1340.72 1243.22,1334.72 1245,1328.5C 1246.94,1324.89 1249.28,1321.56 1252,1318.5C 1277.98,1258.91 1305.31,1199.91 1334,1141.5C 1336.77,1131.15 1341.44,1121.82 1348,1113.5C 1357.26,1090.99 1367.59,1068.99 1379,1047.5C 1379.63,1045.36 1379.3,1043.36 1378,1041.5C 1374.54,1038.19 1370.7,1035.53 1366.5,1033.5C 1366.5,1032.83 1366.83,1032.5 1367.5,1032.5 Z"/></g>
<g><path style="opacity:0.552" fill="#010101" d="M 1948.5,1066.5 C 1949.73,1067.15 1950.39,1068.32 1950.5,1070C 1950.95,1072.88 1949.78,1074.71 1947,1075.5C 1945.84,1075 1945.01,1074.17 1944.5,1073C 1946.04,1070.96 1947.38,1068.79 1948.5,1066.5 Z"/></g>
<g><path style="opacity:1" fill="#75746f" d="M 2288.5,1019.5 C 2326.11,1096.05 2362.11,1173.38 2396.5,1251.5C 2395.83,1251.5 2395.5,1251.83 2395.5,1252.5C 2359.54,1176.57 2323.54,1100.57 2287.5,1024.5C 2288.04,1022.88 2288.37,1021.22 2288.5,1019.5 Z"/></g>
<g><path style="opacity:0.959" fill="#72716c" d="M 1968.5,1687.5 C 1966.9,1686.4 1965.4,1685.07 1964,1683.5C 1924.22,1500.07 1840.05,1340.9 1711.5,1206C 1703.83,1199.97 1695.17,1197.97 1685.5,1200C 1666.2,1209.9 1662.37,1224.06 1674,1242.5C 1688.37,1257.87 1702.37,1273.54 1716,1289.5C 1884.77,1495.54 1954.44,1731.54 1925,1997.5C 1913.16,2091.5 1887.66,2181.5 1848.5,2267.5C 1847.66,2267.16 1847.33,2266.49 1847.5,2265.5C 1866.01,2220.82 1881.84,2175.15 1895,2128.5C 1922.33,2027.49 1932,1924.82 1924,1820.5C 1911.97,1650.05 1857.3,1495.05 1760,1355.5C 1731.65,1315.47 1700.65,1277.47 1667,1241.5C 1657.88,1221.8 1662.71,1206.63 1681.5,1196C 1692.98,1192.25 1703.65,1193.91 1713.5,1201C 1824.29,1314.98 1902.46,1448.82 1948,1602.5C 1956.34,1630.85 1963.17,1659.18 1968.5,1687.5 Z"/></g>
<g><path style="opacity:0.9" fill="#080807" d="M 2396.5,1251.5 C 2404.71,1267.92 2412.38,1284.59 2419.5,1301.5C 2419.17,1301.5 2418.83,1301.5 2418.5,1301.5C 2413.19,1293.16 2405.86,1287.16 2396.5,1283.5C 2396.67,1273.19 2396.34,1262.85 2395.5,1252.5C 2395.5,1251.83 2395.83,1251.5 2396.5,1251.5 Z"/></g>
<g><path style="opacity:1" fill="#444444" d="M 2418.5,1301.5 C 2418.83,1301.5 2419.17,1301.5 2419.5,1301.5C 2423.24,1306.99 2425.91,1312.99 2427.5,1319.5C 2424.01,1313.85 2421.01,1307.85 2418.5,1301.5 Z"/></g>
<g><path style="opacity:0.833" fill="#6e6e6d" d="M 2430.5,1324.5 C 2434.41,1331.31 2438.07,1338.31 2441.5,1345.5C 2440.83,1345.5 2440.5,1345.83 2440.5,1346.5C 2436.61,1339.72 2432.94,1332.72 2429.5,1325.5C 2429.62,1324.89 2429.96,1324.56 2430.5,1324.5 Z"/></g>
<g><path style="opacity:0.616" fill="#222121" d="M 2441.5,1345.5 C 2446.44,1355.04 2451.1,1364.71 2455.5,1374.5C 2455.5,1375.83 2455.5,1377.17 2455.5,1378.5C 2450.15,1368.2 2445.15,1357.53 2440.5,1346.5C 2440.5,1345.83 2440.83,1345.5 2441.5,1345.5 Z"/></g>
<g><path style="opacity:0.678" fill="#91908d" d="M 2455.5,1374.5 C 2460.07,1383.98 2464.41,1393.65 2468.5,1403.5C 2467.83,1403.5 2467.5,1403.83 2467.5,1404.5C 2463.32,1396 2459.32,1387.33 2455.5,1378.5C 2455.5,1377.17 2455.5,1375.83 2455.5,1374.5 Z"/></g>
<g><path style="opacity:0.664" fill="#111010" d="M 2468.5,1403.5 C 2472.77,1412.38 2476.77,1421.38 2480.5,1430.5C 2480.17,1430.5 2479.83,1430.5 2479.5,1430.5C 2473.4,1422.9 2469.4,1414.23 2467.5,1404.5C 2467.5,1403.83 2467.83,1403.5 2468.5,1403.5 Z"/></g>
<g><path style="opacity:0.976" fill="#6b6b6a" d="M 2479.5,1430.5 C 2479.83,1430.5 2480.17,1430.5 2480.5,1430.5C 2482.01,1432.18 2483.01,1434.18 2483.5,1436.5C 2481.2,1435.27 2479.87,1433.27 2479.5,1430.5 Z"/></g>
<g><path style="opacity:0.416" fill="#7c726f" d="M 2487.5,1446.5 C 2490.32,1450.14 2492.66,1454.14 2494.5,1458.5C 2493.83,1458.5 2493.5,1458.83 2493.5,1459.5C 2490.54,1455.27 2488.54,1450.93 2487.5,1446.5 Z"/></g>
<g><path style="opacity:0.976" fill="#2b2a2a" d="M 2494.5,1458.5 C 2501.83,1473.83 2509.17,1489.17 2516.5,1504.5C 2515.83,1504.5 2515.17,1504.5 2514.5,1504.5C 2507.69,1489.42 2500.69,1474.42 2493.5,1459.5C 2493.5,1458.83 2493.83,1458.5 2494.5,1458.5 Z"/></g>
<g><path style="opacity:0.446" fill="#8b8b89" d="M 1969.5,1696.5 C 1971.31,1697.92 1971.97,1699.92 1971.5,1702.5C 1970.6,1703.21 1970.26,1704.21 1970.5,1705.5C 1969.52,1702.71 1969.19,1699.71 1969.5,1696.5 Z"/></g>
<g><path style="opacity:0.895" fill="#0c0c0b" d="M 1140.5,1693.5 C 1133.61,1713.99 1125.45,1733.99 1116,1753.5C 1092.88,1803.08 1069.21,1852.41 1045,1901.5C 1040.96,1909.21 1034.79,1914.38 1026.5,1917C 991.206,1918.3 955.872,1918.97 920.5,1919C 668.497,1919.18 416.497,1919.68 164.5,1920.5C 153,1920.16 141.5,1919.82 130,1919.5C 122.449,1919.43 114.949,1919.93 107.5,1921C 106.084,1923.63 105.417,1926.46 105.5,1929.5C 116.021,2105.4 170.355,2266.07 268.5,2411.5C 268.5,2412.83 267.833,2413.5 266.5,2413.5C 163.559,2263.86 109.226,2097.86 103.5,1915.5C 382.668,1914.95 661.835,1914.95 941,1915.5C 958.167,1915.33 975.333,1915.17 992.5,1915C 1003.21,1914.84 1013.88,1914.18 1024.5,1913C 1032.48,1911.26 1038.32,1906.76 1042,1899.5C 1072.61,1835.29 1102.94,1770.95 1133,1706.5C 1135.02,1701.78 1137.52,1697.44 1140.5,1693.5 Z"/></g>
<g><path style="opacity:0.87" fill="#0a0a09" d="M 1971.5,1702.5 C 1986.78,1780.49 1992.11,1859.15 1987.5,1938.5C 1987.84,1945.2 1988.51,1951.87 1989.5,1958.5C 1985.47,2004.99 1978.31,2050.99 1968,2096.5C 1959.2,2130.56 1950.2,2164.56 1941,2198.5C 1935.79,2213.78 1930.79,2229.12 1926,2244.5C 1917.61,2263.62 1908.94,2282.62 1900,2301.5C 1897.53,2311.45 1893.19,2320.45 1887,2328.5C 1879.33,2344.5 1871.67,2360.5 1864,2376.5C 1861,2380.17 1858,2383.83 1855,2387.5C 1817.87,2450.31 1774.2,2508.31 1724,2561.5C 1702.81,2583.03 1681.31,2604.2 1659.5,2625C 1656.94,2627.41 1653.94,2629.08 1650.5,2630C 1626.83,2649.67 1603.17,2669.33 1579.5,2689C 1572.51,2694.49 1565.18,2699.49 1557.5,2704C 1555.5,2706 1553.5,2708 1551.5,2710C 1526.67,2725.58 1501.67,2740.92 1476.5,2756C 1461.76,2760.71 1447.76,2767.04 1434.5,2775C 1361.39,2810.03 1285.05,2835.7 1205.5,2852C 1179.96,2856.2 1154.3,2859.2 1128.5,2861C 1112.49,2861.56 1096.49,2861.39 1080.5,2860.5C 1084.5,2859.83 1088.5,2859.17 1092.5,2858.5C 1109.18,2858.03 1125.85,2857.2 1142.5,2856C 1274.08,2839.92 1396.41,2797.59 1509.5,2729C 1679.86,2623.98 1808.02,2481.15 1894,2300.5C 1965.17,2143.97 1993.84,1979.97 1980,1808.5C 1975.6,1774.28 1972.43,1739.95 1970.5,1705.5C 1970.26,1704.21 1970.6,1703.21 1971.5,1702.5 Z"/></g>
<g><path style="opacity:0.729" fill="#000000" d="M 1597.5,2019.5 C 1599.83,2019.5 1602.17,2019.5 1604.5,2019.5C 1604.74,2021.47 1604.41,2023.3 1603.5,2025C 1598.79,2025.7 1594.13,2026.53 1589.5,2027.5C 1588.42,2026.64 1588.25,2025.64 1589,2024.5C 1591.68,2022.41 1594.52,2020.75 1597.5,2019.5 Z"/></g>
<g><path style="opacity:0.714" fill="#000000" d="M 1535.5,2040.5 C 1539.18,2040.33 1542.85,2040.5 1546.5,2041C 1540.17,2047.56 1533.51,2048.06 1526.5,2042.5C 1529.64,2041.83 1532.64,2041.17 1535.5,2040.5 Z"/></g>
<g><path style="opacity:0.789" fill="#0d0d0d" d="M 1847.5,2265.5 C 1847.33,2266.49 1847.66,2267.16 1848.5,2267.5C 1830.93,2307.98 1810.26,2346.65 1786.5,2383.5C 1785.83,2383.5 1785.5,2383.17 1785.5,2382.5C 1797.62,2357.58 1810.79,2333.25 1825,2309.5C 1832.29,2294.57 1839.79,2279.91 1847.5,2265.5 Z"/></g>
<g><path style="opacity:0.287" fill="#000000" d="M 1164.5,2378.5 C 1167.18,2378.23 1168.68,2379.23 1169,2381.5C 1167.93,2382.28 1166.76,2382.11 1165.5,2381C 1164.75,2380.33 1164.41,2379.5 1164.5,2378.5 Z"/></g>
<g><path style="opacity:0.847" fill="#696969" d="M 1785.5,2382.5 C 1785.5,2383.17 1785.83,2383.5 1786.5,2383.5C 1785.5,2384.83 1784.5,2386.17 1783.5,2387.5C 1782.83,2387.5 1782.17,2387.5 1781.5,2387.5C 1782.86,2385.81 1784.2,2384.14 1785.5,2382.5 Z"/></g>
<g><path style="opacity:0.807" fill="#0b0b0b" d="M 1781.5,2387.5 C 1782.17,2387.5 1782.83,2387.5 1783.5,2387.5C 1776.34,2398.47 1769.18,2409.47 1762,2420.5C 1641.28,2590.99 1481.11,2707.99 1281.5,2771.5C 1279.8,2771.66 1278.13,2771.49 1276.5,2771C 1275.26,2770.31 1275.26,2769.81 1276.5,2769.5C 1487.87,2701.9 1654.71,2575.9 1777,2391.5C 1778.37,2389.96 1779.87,2388.63 1781.5,2387.5 Z"/></g>
<g><path style="opacity:0.432" fill="#1e1d1d" d="M 526.5,2731.5 C 532.073,2732.44 536.406,2735.11 539.5,2739.5C 536.435,2737.84 533.102,2736.51 529.5,2735.5C 528.828,2733.84 527.828,2732.51 526.5,2731.5 Z"/></g>
<g><path style="opacity:0.605" fill="#101010" d="M 624.5,2782.5 C 615.672,2782.73 608.338,2779.56 602.5,2773C 592.494,2770.16 583.494,2765.5 575.5,2759C 565.251,2754.14 554.917,2749.47 544.5,2745C 542.963,2743.89 542.297,2742.39 542.5,2740.5C 569.575,2753.53 596.908,2767.03 624.5,2781C 625.738,2781.69 625.738,2782.19 624.5,2782.5 Z"/></g>
<g><path style="opacity:0.939" fill="#73726d" d="M 268.5,2411.5 C 382.145,2573.55 532.145,2688.71 718.5,2757C 903.42,2819.82 1089.42,2823.98 1276.5,2769.5C 1275.26,2769.81 1275.26,2770.31 1276.5,2771C 1278.13,2771.49 1279.8,2771.66 1281.5,2771.5C 1238.38,2786.53 1194.04,2797.03 1148.5,2803C 1118.86,2805.89 1089.19,2808.55 1059.5,2811C 1027.5,2811.67 995.5,2811.67 963.5,2811C 668.17,2786.41 435.837,2653.91 266.5,2413.5C 267.833,2413.5 268.5,2412.83 268.5,2411.5 Z"/></g>
<g><path style="opacity:0.824" fill="#090909" d="M 627.5,2783.5 C 629.927,2783.52 632.26,2784.02 634.5,2785C 680.334,2805.78 727.668,2822.28 776.5,2834.5C 776.5,2835.17 776.5,2835.83 776.5,2836.5C 768.804,2836.48 761.138,2835.98 753.5,2835C 752.167,2833.67 750.833,2832.33 749.5,2831C 725.426,2825.53 702.092,2817.86 679.5,2808C 678.833,2807.33 678.167,2806.67 677.5,2806C 672.543,2804.51 667.543,2803.18 662.5,2802C 653.049,2795.44 642.715,2790.78 631.5,2788C 630.267,2786.33 628.933,2784.83 627.5,2783.5 Z"/></g>
<g><path style="opacity:0.404" fill="#6c6c6b" d="M 776.5,2834.5 C 778.698,2834.88 780.698,2835.54 782.5,2836.5C 781.833,2836.5 781.5,2836.83 781.5,2837.5C 779.883,2836.96 778.216,2836.63 776.5,2836.5C 776.5,2835.83 776.5,2835.17 776.5,2834.5 Z"/></g>
<g><path style="opacity:0.843" fill="#0c0c0c" d="M 782.5,2836.5 C 817.982,2845.56 853.982,2851.73 890.5,2855C 935.16,2856.38 979.827,2857.54 1024.5,2858.5C 1024.5,2858.83 1024.5,2859.17 1024.5,2859.5C 1004.5,2859.68 984.498,2860.01 964.5,2860.5C 946.623,2860.46 928.79,2859.79 911,2858.5C 899.2,2859.64 887.367,2859.8 875.5,2859C 851.075,2855.18 826.742,2850.85 802.5,2846C 795.833,2844 789.167,2842 782.5,2840C 781.748,2839.33 781.414,2838.5 781.5,2837.5C 781.5,2836.83 781.833,2836.5 782.5,2836.5 Z"/></g>
<g><path style="opacity:0.504" fill="#7a7a79" d="M 1024.5,2858.5 C 1047.17,2858.5 1069.83,2858.5 1092.5,2858.5C 1088.5,2859.17 1084.5,2859.83 1080.5,2860.5C 1079.07,2860.42 1077.74,2860.75 1076.5,2861.5C 1059.04,2860.85 1041.71,2860.18 1024.5,2859.5C 1024.5,2859.17 1024.5,2858.83 1024.5,2858.5 Z"/></g>
</svg>
